<svg xmlns="http://www.w3.org/2000/svg" width="512" height="512" viewBox="0 0 512 512" fill="none">
<title>Iceforge Mark (Light)</title>
<g id="iceforge-mark">
  <rect x="72" y="344" width="368" height="44" rx="8" fill="#1F2933"/>
    <rect x="100" y="290" width="312" height="44" rx="8" fill="#1F2933"/>
    <rect x="128" y="236" width="256" height="44" rx="8" fill="#1F2933"/>
    <rect x="156" y="182" width="200" height="44" rx="8" fill="#1F2933"/>
    <rect x="184" y="128" width="144" height="44" rx="8" fill="#1F2933"/>
    <rect x="208" y="78" width="96" height="40" rx="10" fill="#1F2933"/>
  <rect x="248" y="-36" width="16" height="120" rx="6" fill="#4FA3D1"/>
    <rect x="196" y="16" width="120" height="16" rx="6" fill="#4FA3D1"/>
    <g transform="translate(256,24) rotate(45) translate(-256,-24)"><rect x="201" y="16" width="110" height="16" rx="6" fill="#4FA3D1"/></g>
    <g transform="translate(256,24) rotate(-45) translate(-256,-24)"><rect x="201" y="16" width="110" height="16" rx="6" fill="#4FA3D1"/></g>
    <rect x="242" y="10" width="28" height="28" rx="10" fill="#4FA3D1"/>
</g>
</svg>